# Blender 3.1.0
# www.blender.org
mtllib koksal.mtl
o Cube
v -1.140996 0.000000 -0.308547
v -1.140996 2.700000 -0.308547
v -0.459005 0.000000 -0.308547
v -0.459005 2.700000 -0.308547
v -1.140996 0.000000 0.308547
v -1.140996 2.700000 0.308547
v -0.459005 0.000000 0.308547
v -0.459005 2.700000 0.308547
vn -0.0000 -0.0000 -1.0000
vn 1.0000 -0.0000 -0.0000
vn -0.0000 -0.0000 1.0000
vn -1.0000 -0.0000 -0.0000
vn -0.0000 -1.0000 -0.0000
vn -0.0000 1.0000 -0.0000
vt 0.595870 0.435008
vt 0.599824 0.418667
vt 0.646029 0.038808
vt 0.599865 0.387235
vt 0.622750 0.438130
vt 0.565086 0.418667
vt 0.672909 0.041930
vt 0.599865 0.421973
vt 0.571548 0.432183
vt 0.599824 0.387235
vt 0.621706 0.035982
vt 0.631297 0.387235
vt 0.647073 0.440956
vt 0.544667 0.429061
vt 0.565086 0.387235
vt 0.697231 0.044755
vt 0.594826 0.032860
vt 0.631297 0.421973
s 0
usemtl Material.001
f 1/1/1 2/3/1 4/7/1 3/5/1
f 3/5/2 4/7/2 8/16/2 7/13/2
f 7/14/3 8/17/3 6/11/3 5/9/3
f 5/9/4 6/11/4 2/3/4 1/1/4
f 3/6/5 7/15/5 5/10/5 1/2/5
f 8/18/6 4/8/6 2/4/6 6/12/6
o Cube.001
v -1.425611 5.070997 0.250412
v -1.425611 5.529003 0.250412
v -1.713360 5.070997 0.250412
v -1.713360 5.529003 0.250412
v -1.425611 5.070997 -0.250412
v -1.425611 5.529003 -0.250412
v -1.713360 5.070997 -0.250412
v -1.713360 5.529003 -0.250412
v -2.013360 5.070997 0.250412
v -2.013360 5.529003 0.250412
v -2.013360 5.070997 -0.250412
v -2.013360 5.529003 -0.250412
v -1.713360 2.970997 0.250412
v -1.713360 2.970997 -0.250412
v -2.013360 2.970997 0.250412
v -2.013360 2.970997 -0.250412
vn -0.0000 -0.0000 1.0000
vn -0.0000 1.0000 -0.0000
vn -0.0000 -0.0000 -1.0000
vn 1.0000 -0.0000 -0.0000
vn -0.0000 -1.0000 -0.0000
vn -1.0000 -0.0000 -0.0000
vt 0.347253 0.676322
vt 0.346498 0.685357
vt 0.304086 0.673390
vt 0.340771 0.672734
vt 0.305469 0.680910
vt 0.302765 0.666211
vt 0.340742 0.684809
vt 0.305068 0.678631
vt 0.356774 0.672094
vt 0.307131 0.689849
vt 0.359318 0.683923
vt 0.291591 0.675688
vt 0.312116 0.677334
vt 0.352724 0.665078
vt 0.307767 0.693405
vt 0.290271 0.668509
vt 0.314180 0.688552
vt 0.332586 0.673698
vt 0.297984 0.682287
vt 0.333616 0.685305
vt 0.319597 0.675827
vt 0.300283 0.694781
vt 0.321528 0.687201
vt 0.304089 0.673408
vt 0.326661 0.618223
vt 0.299236 0.625081
vt 0.291594 0.675706
vt 0.336692 0.615295
vt 0.305466 0.680892
vt 0.319135 0.620141
vt 0.292971 0.683190
vt 0.306701 0.623241
s 0
usemtl Material.005
f 9/19/7 10/20/7 12/25/7 11/22/7
f 12/23/8 16/33/8 20/40/8 18/37/8
f 15/31/9 16/35/9 14/28/9 13/26/9
f 13/27/10 14/29/10 10/20/10 9/19/10
f 11/22/11 15/32/11 13/27/11 9/19/11
f 16/34/8 12/24/8 10/21/8 14/30/8
f 17/36/12 18/38/12 20/41/12 19/39/12
f 11/22/7 12/25/7 18/38/7 17/36/7
f 16/35/9 15/31/9 19/39/9 20/41/9
f 19/39/9 15/31/9 22/44/9 24/50/9
f 22/45/11 21/42/11 23/47/11 24/49/11
f 15/32/10 11/22/10 21/43/10 22/46/10
f 17/36/12 19/39/12 24/50/12 23/48/12
f 11/22/7 17/36/7 23/48/7 21/43/7
o Cube.002
v -0.832987 6.100000 -1.000000
v -0.832987 7.500000 -1.000000
v 0.832987 6.100000 -1.000000
v 0.832987 7.500000 -1.000000
v -0.832987 6.100000 1.000000
v -0.832987 7.500000 1.000000
v 0.832987 6.100000 1.000000
v 0.832987 7.500000 1.000000
vn -0.0000 -0.0000 -1.0000
vn 1.0000 -0.0000 -0.0000
vn -0.0000 -0.0000 1.0000
vn -1.0000 -0.0000 -0.0000
vn -0.0000 -1.0000 -0.0000
vn -0.0000 1.0000 -0.0000
vt 0.392593 0.760228
vt 0.352946 0.978248
vt 0.191190 0.227272
vt 0.583503 0.760228
vt 0.537301 1.027844
vt 0.603918 0.987138
vt 0.392593 0.987406
vt 0.421310 0.709972
vt 0.191190 0.000093
vt 0.583503 0.987407
vt 0.605661 0.759585
vt 0.603918 0.759959
vt 0.391403 0.736734
vt 0.423796 0.714884
vt 0.463918 0.227272
vt 0.343872 0.971902
vt 0.608151 0.764480
vt 0.331190 0.987138
vt 0.350436 0.973330
vt 0.614724 0.778420
vt 0.463918 0.000093
vt 0.534786 1.022942
vt 0.567194 1.013588
vt 0.331190 0.759959
s 0
usemtl Material.006
f 25/51/13 26/54/13 28/60/13 27/57/13
f 27/58/14 28/61/14 32/72/14 31/69/14
f 31/70/15 32/73/15 30/66/15 29/63/15
f 29/64/16 30/67/16 26/55/16 25/52/16
f 27/59/17 31/71/17 29/65/17 25/53/17
f 32/74/18 28/62/18 26/56/18 30/68/18
o Cube.003
v -1.444179 2.700000 -0.748032
v -1.444179 5.800000 -0.748032
v 1.444179 2.700000 -0.748032
v 1.444179 5.800000 -0.748032
v -1.444179 2.700000 0.748032
v -1.444179 5.800000 0.748032
v 1.444179 2.700000 0.748032
v 1.444179 5.800000 0.748032
vn -0.0000 -0.0000 -1.0000
vn 1.0000 -0.0000 -0.0000
vn -0.0000 -0.0000 1.0000
vn -1.0000 -0.0000 -0.0000
vn -0.0000 -1.0000 -0.0000
vn -0.0000 1.0000 -0.0000
vt 0.414206 0.693340
vt 0.404873 0.629574
vt 0.524344 0.000107
vt 0.468624 0.693340
vt 0.408348 0.558427
vt 0.683088 0.329639
vt 0.414206 0.744043
vt 0.602327 0.683080
vt 0.524344 0.329425
vt 0.468624 0.744043
vt 0.602327 0.605888
vt 0.353769 0.329639
vt 0.420370 0.538982
vt 0.370538 0.627897
vt 0.353769 0.000107
vt 0.387645 0.699295
vt 0.374013 0.556750
vt 0.683088 0.500214
vt 0.639580 0.683080
vt 0.625901 0.602922
vt 0.353770 0.329425
vt 0.639580 0.605888
vt 0.593176 0.763234
vt 0.353769 0.500214
s 0
usemtl Material.004
f 33/75/19 34/78/19 36/84/19 35/81/19
f 35/82/20 36/85/20 40/96/20 39/93/20
f 39/94/21 40/97/21 38/90/21 37/87/21
f 37/88/22 38/91/22 34/79/22 33/76/22
f 35/83/23 39/95/23 37/89/23 33/77/23
f 40/98/24 36/86/24 34/80/24 38/92/24
o Cube.004
v -0.276510 5.800000 -0.281255
v -0.276510 6.100000 -0.281255
v 0.276510 5.800000 -0.281255
v 0.276510 6.100000 -0.281255
v -0.276510 5.800000 0.281255
v -0.276510 6.100000 0.281255
v 0.276510 5.800000 0.281255
v 0.276510 6.100000 0.281255
vn -0.0000 -0.0000 -1.0000
vn 1.0000 -0.0000 -0.0000
vn -0.0000 -0.0000 1.0000
vn -1.0000 -0.0000 -0.0000
vn -0.0000 -1.0000 -0.0000
vn -0.0000 1.0000 -0.0000
vt 0.375000 0.000000
vt 0.375000 1.000000
vt 0.125000 0.750000
vt 0.625000 0.000000
vt 0.625000 1.000000
vt 0.875000 0.750000
vt 0.375000 0.250000
vt 0.125000 0.500000
vt 0.625000 0.250000
vt 0.875000 0.500000
vt 0.375000 0.750000
vt 0.625000 0.750000
vt 0.375000 0.500000
vt 0.625000 0.500000
s 0
f 41/99/25 42/102/25 44/107/25 43/105/25
f 43/105/26 44/107/26 48/112/26 47/111/26
f 47/111/27 48/112/27 46/110/27 45/109/27
f 45/109/28 46/110/28 42/103/28 41/100/28
f 43/106/29 47/111/29 45/109/29 41/101/29
f 48/112/30 44/108/30 42/104/30 46/110/30
o Cube.005
v 1.456126 5.070997 -0.250412
v 1.456126 5.529003 -0.250412
v 1.743875 5.070997 -0.250412
v 1.743875 5.529003 -0.250412
v 1.456126 5.070997 0.250412
v 1.456126 5.529003 0.250412
v 1.743875 5.070997 0.250412
v 1.743875 5.529003 0.250412
v 2.043875 5.070997 -0.250412
v 2.043875 5.529003 -0.250412
v 2.043875 5.070997 0.250412
v 2.043875 5.529003 0.250412
v 1.743875 2.970997 -0.250412
v 1.743875 2.970997 0.250412
v 2.043875 2.970997 -0.250412
v 2.043875 2.970997 0.250412
vn -0.0000 -0.0000 -1.0000
vn -0.0000 1.0000 -0.0000
vn -0.0000 -0.0000 1.0000
vn -1.0000 -0.0000 -0.0000
vn -0.0000 -1.0000 -0.0000
vn 1.0000 -0.0000 -0.0000
vt 0.701741 0.695898
vt 0.637708 0.798764
vt 0.618280 0.692081
vt 0.701111 0.713223
vt 0.654615 0.774477
vt 0.628085 0.755949
vt 0.623542 0.684549
vt 0.690857 0.695503
vt 0.643344 0.766571
vt 0.690227 0.712827
vt 0.611150 0.780277
vt 0.631964 0.703228
vt 0.639454 0.720304
vt 0.628056 0.755989
vt 0.646572 0.729390
vt 0.642908 0.695428
vt 0.661831 0.740012
vt 0.650182 0.715598
vt 0.678862 0.694727
vt 0.659253 0.777645
vt 0.678799 0.712518
vt 0.657400 0.694724
vt 0.677740 0.751086
vt 0.659966 0.713295
vt 0.637680 0.798805
vt 0.639565 0.600976
vt 0.700049 0.611284
vt 0.611121 0.780318
vt 0.659496 0.604797
vt 0.626606 0.814714
vt 0.689656 0.609335
vt 0.600047 0.796227
vt 0.669549 0.606447
s 0
usemtl Material.003
f 49/113/31 50/116/31 52/122/31 51/120/31
f 52/121/32 56/129/32 60/135/32 58/132/32
f 55/128/33 56/130/33 54/125/33 53/124/33
f 53/123/34 54/126/34 50/117/34 49/114/34
f 51/119/35 55/128/35 53/124/35 49/115/35
f 56/129/32 52/121/32 50/118/32 54/127/32
f 57/131/36 58/133/36 60/136/36 59/134/36
f 51/120/31 52/122/31 58/133/31 57/131/31
f 56/130/33 55/128/33 59/134/33 60/136/33
f 59/134/33 55/128/33 62/141/33 64/145/33
f 62/140/35 61/137/35 63/142/35 64/144/35
f 55/128/34 51/119/34 61/138/34 62/141/34
f 57/131/36 59/134/36 64/145/36 63/143/36
f 51/120/31 57/131/31 63/143/31 61/139/31
o Cube.006
v 0.459005 0.000000 -0.308547
v 0.459005 2.700000 -0.308547
v 1.140996 0.000000 -0.308547
v 1.140996 2.700000 -0.308547
v 0.459005 0.000000 0.308547
v 0.459005 2.700000 0.308547
v 1.140996 0.000000 0.308547
v 1.140996 2.700000 0.308547
vn -0.0000 -0.0000 -1.0000
vn 1.0000 -0.0000 -0.0000
vn -0.0000 -0.0000 1.0000
vn -1.0000 -0.0000 -0.0000
vn -0.0000 -1.0000 -0.0000
vn -0.0000 1.0000 -0.0000
vt 0.476609 0.009709
vt 0.489345 0.327166
vt 0.419530 0.379659
vt 0.483407 0.394810
vt 0.453884 0.004319
vt 0.540460 0.024854
vt 0.512070 0.332556
vt 0.396805 0.374269
vt 0.483381 0.394804
vt 0.506132 0.400200
vt 0.497172 0.014587
vt 0.486378 0.360966
vt 0.440093 0.384536
vt 0.486374 0.361009
vt 0.519897 0.019977
vt 0.509103 0.366356
vt 0.462818 0.389926
vt 0.509099 0.366400
s 0
usemtl Material.002
f 65/146/37 66/148/37 68/153/37 67/150/37
f 67/151/38 68/154/38 72/162/38 71/160/38
f 71/160/39 72/162/39 70/158/39 69/156/39
f 69/156/40 70/158/40 66/148/40 65/146/40
f 67/152/41 71/161/41 69/157/41 65/147/41
f 72/163/42 68/155/42 66/149/42 70/159/42
